# xmcd
#
# Track frame offsets:
#	150
#	9650
#	25992
#	49415
#	54077
#	84782
#	135985
#	160680
#	218682
#	246710
#	263715
#	293585
#
# Disc length: 4634 seconds
#
# Revision: 38
# Processed by: cddbd v1.5.2PL0 Copyright (c) Steve Scherf et al.
# Submitted via: audiograbber 1.83.01
#
DISCID=9912180c
DTITLE=Dream Theater - Metropolis Pt.2 - Scenes From A Memory
DYEAR=1999
DGENRE=Progressive Metal
TTITLE0=Act I Scene 1 Regression
TTITLE1=Act I Scene 2 Overture 1928
TTITLE2=Act I Scene 2 Strange Déjà Vu
TTITLE3=Act I Scene 3 Through My Words
TTITLE4=Act I Scene 3 Fatal Tragedy
TTITLE5=Act I Scene 4 Beyond This Life
TTITLE6=Act I Scene 5 Through Her Eyes
TTITLE7=Act II Scene 6 Home
TTITLE8=Act II Scene 7 The Dance Of Eternity
TTITLE9=Act II Scene 7 One Last Time
TTITLE10=Act II Scene 8 The Spirit Carries On
TTITLE11=Act II Scene 9 Finally Free
EXTD=YEAR: 1999
EXTT0=
EXTT1=
EXTT2=
EXTT3=
EXTT4=
EXTT5=
EXTT6=
EXTT7=
EXTT8=
EXTT9=
EXTT10=
EXTT11=
PLAYORDER=
